<svg width="298" height="84" viewBox="0 0 298 84" fill="none" xmlns="http://www.w3.org/2000/svg"><g clip-path="url(#a)"><path d="M255.323 31.859c1.775-3.123 4.245-5.608 7.406-7.456 3.167-1.847 6.503-2.77 10.039-2.77 3.591 0 6.994.93 10.203 2.77 3.21 1.848 5.692 4.302 7.454 7.377 1.762 3.068 2.646 6.508 2.646 10.305 0 3.822-.884 7.291-2.646 10.427-1.762 3.123-4.22 5.59-7.375 7.388-3.155 1.799-6.582 2.71-10.282 2.71-5.546 0-10.281-1.956-14.205-5.881-3.93-3.92-5.898-8.72-5.898-14.407-.006-3.858.884-7.34 2.658-10.463Zm17.621 35.387c6.982 0 12.91-2.442 17.766-7.321 4.85-4.88 7.29-10.828 7.29-17.834 0-7.072-2.434-13.021-7.296-17.87-4.862-4.837-10.912-7.26-18.135-7.26-4.463 0-8.605 1.111-12.432 3.341-3.827 2.224-6.854 5.292-9.07 9.224-2.217 3.93-3.331 8.184-3.331 12.79 0 6.896 2.435 12.784 7.297 17.64 4.856 4.866 10.826 7.29 17.911 7.29Zm-59.959-1.196h1.217l16.87-34.234 4.711 34.233h4.681l-6.867-47.868h-.763l-19.207 39.277-19.395-39.277h-.775l-6.83 47.868h4.614l4.675-34.494 17.069 34.494Zm-35.114-47.869h-4.766v47.862h4.766V18.181Zm-42.502 27.501 8.169-17.323 8.138 17.323h-16.307Zm7.618-27.5-22.538 47.867h5.317l7.429-15.749h20.546l7.508 15.75h5.147l-22.247-47.862h-1.162v-.007Zm-20.757-.001-16.077 36.986-15.804-36.986H85.16l20.461 47.868h1.047l20.751-47.868h-5.189Z" fill="#333"/><path d="M32.716 41.417h-.224s-1.241 0-2.404-.413c.787.224 1.726.34 2.628.413Zm16.216-.644c1.616-.754 2.852-2.376.302-5.998L38.983 20.18l9.234-13.5S52.795 0 60.867 0h12.237s8.071 0 3.488 6.678L57.415 34.666c-.042.11-3.04 4.484-8.483 6.107Z" fill="url(#b)"/><path d="M45.814 41.417H32.717 44.73c1.502 0 2.93-.225 4.166-.644-1.357.644-3.046.644-3.082.644Zm-15.762-.377c-5.97-1.434-9.307-6.222-9.307-6.222L5.202 12.713C.545 6.114 8.58 6.072 8.58 6.072h12.347c8.072 0 12.722 6.64 12.722 6.64l5.298 7.505-9.949 14.522c-2.815 4.114-.865 5.657 1.054 6.301Z" fill="url(#c)"/><path d="M44.725 41.417H32.717a11.59 11.59 0 0 1-2.627-.413c-1.95-.602-3.864-2.188-1.054-6.301l9.949-14.523L49.23 34.782c2.513 3.585 1.314 5.243-.303 5.997-1.271.413-2.7.638-4.202.638Z" fill="url(#d)"/><path d="M45.287 42.626h.224s1.241 0 2.404.413c-.787-.225-1.726-.34-2.628-.413Zm-16.216.638c-1.616.753-2.852 2.376-.302 5.997l10.245 14.595-9.234 13.465s-4.578 6.678-12.65 6.678H4.9s-8.072 0-3.495-6.678l19.183-27.987c.042-.073 3.046-4.448 8.483-6.07Z" fill="url(#e)"/><path d="M32.19 42.626h13.096H33.28c-1.501 0-2.93.225-4.166.644 1.35-.644 3.04-.644 3.076-.644Zm15.767.377c5.97 1.434 9.307 6.222 9.307 6.222L72.8 71.33c4.657 6.598-3.378 6.641-3.378 6.641H57.076c-8.072 0-12.722-6.641-12.722-6.641l-5.292-7.504 9.949-14.522c2.81-4.114.86-5.663-1.054-6.301Z" fill="url(#f)"/><path d="M33.237 42.626h12.05c.938.036 1.804.188 2.628.413 1.95.602 3.869 2.188 1.053 6.301L39.02 63.862 28.774 49.261c-2.513-3.585-1.314-5.244.303-5.997a13.418 13.418 0 0 1 4.16-.638Z" fill="url(#g)"/></g><defs><linearGradient id="b" x1="47.161" y1="36.359" x2="58.361" y2="12.555" gradientUnits="userSpaceOnUse"><stop stop-color="#FCD661"/><stop offset="1" stop-color="#F5A31C"/></linearGradient><linearGradient id="c" x1="39.268" y1="36.316" x2="20.933" y2="17.384" gradientUnits="userSpaceOnUse"><stop stop-color="#FCD661"/><stop offset="1" stop-color="#F5A31C"/></linearGradient><linearGradient id="d" x1="39.148" y1="42.145" x2="39.148" y2="31.948" gradientUnits="userSpaceOnUse"><stop stop-color="#FCD661"/><stop offset="1" stop-color="#F5A31C"/></linearGradient><linearGradient id="e" x1="30.833" y1="47.682" x2="19.633" y2="71.486" gradientUnits="userSpaceOnUse"><stop stop-color="#FCD661"/><stop offset="1" stop-color="#F5A31C"/></linearGradient><linearGradient id="f" x1="38.735" y1="47.724" x2="57.071" y2="66.656" gradientUnits="userSpaceOnUse"><stop stop-color="#FCD661"/><stop offset="1" stop-color="#F5A31C"/></linearGradient><linearGradient id="g" x1="38.857" y1="41.899" x2="38.857" y2="52.096" gradientUnits="userSpaceOnUse"><stop stop-color="#FCD661"/><stop offset="1" stop-color="#F5A31C"/></linearGradient><clipPath id="a"><path fill="#333" d="M0 0h298v84H0z"/></clipPath></defs></svg>